<?xml version="1.0" encoding="utf-8"?>
<svg version="1.1" xmlns:xlink="http://www.w3.org/1999/xlink" width="20px" height="36px" xmlns="http://www.w3.org/2000/svg">
  <defs>
    <mask fill="white" id="clip89">
      <path d="M 10 0  C 15.5228477054172 0  20 8.05887413024902  20 18  C 20 27.941125869751  15.5228477054172 36  10 36  C 4.47715229458279 36  0 27.941125869751  0 18  C 0 8.05887413024902  4.47715229458279 0  10 0  Z " fill-rule="evenodd" />
    </mask>
  </defs>
  <g transform="matrix(1 0 0 1 -129 -4907 )">
    <path d="M 10 0  C 15.5228477054172 0  20 8.05887413024902  20 18  C 20 27.941125869751  15.5228477054172 36  10 36  C 4.47715229458279 36  0 27.941125869751  0 18  C 0 8.05887413024902  4.47715229458279 0  10 0  Z " fill-rule="nonzero" fill="#ffffff" stroke="none" fill-opacity="0" transform="matrix(1 0 0 1 129 4907 )" />
    <path d="M 10 0  C 15.5228477054172 0  20 8.05887413024902  20 18  C 20 27.941125869751  15.5228477054172 36  10 36  C 4.47715229458279 36  0 27.941125869751  0 18  C 0 8.05887413024902  4.47715229458279 0  10 0  Z " stroke-width="4" stroke="#07133a" fill="none" transform="matrix(1 0 0 1 129 4907 )" mask="url(#clip89)" />
  </g>
</svg>