<?xml version="1.0" encoding="utf-8"?>
<svg version="1.1" xmlns:xlink="http://www.w3.org/1999/xlink" width="26px" height="36px" xmlns="http://www.w3.org/2000/svg">
  <defs>
    <mask fill="white" id="clip71">
      <path d="M 13 0  C 20.1797020170424 0  26 8.05887413024902  26 18  C 26 27.941125869751  20.1797020170424 36  13 36  C 5.82029798295763 36  0 27.941125869751  0 18  C 0 8.05887413024902  5.82029798295763 0  13 0  Z " fill-rule="evenodd" />
    </mask>
  </defs>
  <g transform="matrix(1 0 0 1 -165 -3335 )">
    <path d="M 13 0  C 20.1797020170424 0  26 8.05887413024902  26 18  C 26 27.941125869751  20.1797020170424 36  13 36  C 5.82029798295763 36  0 27.941125869751  0 18  C 0 8.05887413024902  5.82029798295763 0  13 0  Z " fill-rule="nonzero" fill="#ffffff" stroke="none" fill-opacity="0" transform="matrix(1 0 0 1 165 3335 )" />
    <path d="M 13 0  C 20.1797020170424 0  26 8.05887413024902  26 18  C 26 27.941125869751  20.1797020170424 36  13 36  C 5.82029798295763 36  0 27.941125869751  0 18  C 0 8.05887413024902  5.82029798295763 0  13 0  Z " stroke-width="4" stroke="#07133a" fill="none" transform="matrix(1 0 0 1 165 3335 )" mask="url(#clip71)" />
  </g>
</svg>