<?xml version="1.0" encoding="utf-8"?>
<svg version="1.1" xmlns:xlink="http://www.w3.org/1999/xlink" width="25px" height="36px" xmlns="http://www.w3.org/2000/svg">
  <defs>
    <mask fill="white" id="clip82">
      <path d="M 12.5 0  C 19.4035596317715 0  25 8.05887413024902  25 18  C 25 27.941125869751  19.4035596317715 36  12.5 36  C 5.59644036822849 36  0 27.941125869751  0 18  C 0 8.05887413024902  5.59644036822849 0  12.5 0  Z " fill-rule="evenodd" />
    </mask>
  </defs>
  <g transform="matrix(1 0 0 1 -161 -4644 )">
    <path d="M 12.5 0  C 19.4035596317715 0  25 8.05887413024902  25 18  C 25 27.941125869751  19.4035596317715 36  12.5 36  C 5.59644036822849 36  0 27.941125869751  0 18  C 0 8.05887413024902  5.59644036822849 0  12.5 0  Z " fill-rule="nonzero" fill="#ffffff" stroke="none" fill-opacity="0" transform="matrix(1 0 0 1 161 4644 )" />
    <path d="M 12.5 0  C 19.4035596317715 0  25 8.05887413024902  25 18  C 25 27.941125869751  19.4035596317715 36  12.5 36  C 5.59644036822849 36  0 27.941125869751  0 18  C 0 8.05887413024902  5.59644036822849 0  12.5 0  Z " stroke-width="4" stroke="#07133a" fill="none" transform="matrix(1 0 0 1 161 4644 )" mask="url(#clip82)" />
  </g>
</svg>