<?xml version="1.0" encoding="utf-8"?>
<svg version="1.1" xmlns:xlink="http://www.w3.org/1999/xlink" width="223px" height="396px" xmlns="http://www.w3.org/2000/svg">
  <defs>
    <mask fill="white" id="clip59">
      <path d="M 0 337  L 0 116  C 0 82.96  25.96 57  59 57  L 84.9473684210527 41.0701754385968  L 98.9824561403509 25.280701754386  L 111.263157894737 0.719298245614141  L 125.298245614035 25.280701754386  L 141.087719298246 41.0701754385968  L 164 57  C 197.04 57  223 82.96  223 116  L 223 337  C 223 370.04  197.04 396  164 396  L 59 396  C 25.96 396  0 370.04  0 337  Z " fill-rule="evenodd" />
    </mask>
  </defs>
  <g transform="matrix(1 0 0 1 0 57 )">
    <path d="M 0 337  L 0 116  C 0 82.96  25.96 57  59 57  L 84.9473684210527 41.0701754385968  L 98.9824561403509 25.280701754386  L 111.263157894737 0.719298245614141  L 125.298245614035 25.280701754386  L 141.087719298246 41.0701754385968  L 164 57  C 197.04 57  223 82.96  223 116  L 223 337  C 223 370.04  197.04 396  164 396  L 59 396  C 25.96 396  0 370.04  0 337  Z " fill-rule="nonzero" fill="#797979" stroke="none" transform="matrix(1 0 0 1 0 -57 )" />
    <path d="M 0 337  L 0 116  C 0 82.96  25.96 57  59 57  L 84.9473684210527 41.0701754385968  L 98.9824561403509 25.280701754386  L 111.263157894737 0.719298245614141  L 125.298245614035 25.280701754386  L 141.087719298246 41.0701754385968  L 164 57  C 197.04 57  223 82.96  223 116  L 223 337  C 223 370.04  197.04 396  164 396  L 59 396  C 25.96 396  0 370.04  0 337  Z " stroke-width="6" stroke="#808000" fill="none" transform="matrix(1 0 0 1 0 -57 )" mask="url(#clip59)" />
  </g>
</svg>