<?xml version="1.0" encoding="utf-8"?>
<svg version="1.1" xmlns:xlink="http://www.w3.org/1999/xlink" width="243px" height="397px" xmlns="http://www.w3.org/2000/svg">
  <defs>
    <mask fill="white" id="clip60">
      <path d="M 0 332  L 0 123  C 0 86.6  28.6 58  65 58  L 90.6491228070176 42.2105263157896  L 106.438596491228 26.421052631579  L 120.473684210526 0.105263157894811  L 134.508771929825 26.421052631579  L 146.789473684211 42.2105263157896  L 178 58  C 214.4 58  243 86.6  243 123  L 243 332  C 243 368.4  214.4 397  178 397  L 65 397  C 28.6 397  0 368.4  0 332  Z " fill-rule="evenodd" />
    </mask>
  </defs>
  <g transform="matrix(1 0 0 1 0 58 )">
    <path d="M 0 332  L 0 123  C 0 86.6  28.6 58  65 58  L 90.6491228070176 42.2105263157896  L 106.438596491228 26.421052631579  L 120.473684210526 0.105263157894811  L 134.508771929825 26.421052631579  L 146.789473684211 42.2105263157896  L 178 58  C 214.4 58  243 86.6  243 123  L 243 332  C 243 368.4  214.4 397  178 397  L 65 397  C 28.6 397  0 368.4  0 332  Z " fill-rule="nonzero" fill="#797979" stroke="none" transform="matrix(1 0 0 1 0 -58 )" />
    <path d="M 0 332  L 0 123  C 0 86.6  28.6 58  65 58  L 90.6491228070176 42.2105263157896  L 106.438596491228 26.421052631579  L 120.473684210526 0.105263157894811  L 134.508771929825 26.421052631579  L 146.789473684211 42.2105263157896  L 178 58  C 214.4 58  243 86.6  243 123  L 243 332  C 243 368.4  214.4 397  178 397  L 65 397  C 28.6 397  0 368.4  0 332  Z " stroke-width="6" stroke="#808000" fill="none" transform="matrix(1 0 0 1 0 -58 )" mask="url(#clip60)" />
  </g>
</svg>