<?xml version="1.0" encoding="utf-8"?>
<svg version="1.1" xmlns:xlink="http://www.w3.org/1999/xlink" width="277px" height="396px" xmlns="http://www.w3.org/2000/svg">
  <defs>
    <mask fill="white" id="clip61">
      <path d="M 0 330  L 0 123  C 0 86.04  29.04 57  66 57  L 95.4385964912282 42.9649122807017  L 116.491228070176 27.1754385964914  L 135.789473684211 0.859649122807014  L 158.59649122807 27.1754385964914  L 176.140350877193 42.9649122807017  L 211 57  C 247.96 57  277 86.04  277 123  L 277 330  C 277 366.96  247.96 396  211 396  L 66 396  C 29.04 396  0 366.96  0 330  Z " fill-rule="evenodd" />
    </mask>
  </defs>
  <g transform="matrix(1 0 0 1 0 57 )">
    <path d="M 0 330  L 0 123  C 0 86.04  29.04 57  66 57  L 95.4385964912282 42.9649122807017  L 116.491228070176 27.1754385964914  L 135.789473684211 0.859649122807014  L 158.59649122807 27.1754385964914  L 176.140350877193 42.9649122807017  L 211 57  C 247.96 57  277 86.04  277 123  L 277 330  C 277 366.96  247.96 396  211 396  L 66 396  C 29.04 396  0 366.96  0 330  Z " fill-rule="nonzero" fill="#797979" stroke="none" transform="matrix(1 0 0 1 0 -57 )" />
    <path d="M 0 330  L 0 123  C 0 86.04  29.04 57  66 57  L 95.4385964912282 42.9649122807017  L 116.491228070176 27.1754385964914  L 135.789473684211 0.859649122807014  L 158.59649122807 27.1754385964914  L 176.140350877193 42.9649122807017  L 211 57  C 247.96 57  277 86.04  277 123  L 277 330  C 277 366.96  247.96 396  211 396  L 66 396  C 29.04 396  0 366.96  0 330  Z " stroke-width="6" stroke="#808000" fill="none" transform="matrix(1 0 0 1 0 -57 )" mask="url(#clip61)" />
  </g>
</svg>