<?xml version="1.0" encoding="utf-8"?>
<svg version="1.1" xmlns:xlink="http://www.w3.org/1999/xlink" width="305px" height="396px" xmlns="http://www.w3.org/2000/svg">
  <defs>
    <mask fill="white" id="clip62">
      <path d="M 0 330  L 0 123  C 0 86.04  29.04 57  66 57  L 100.982456140351 42.9649122807017  L 125.543859649123 28.9298245614036  L 150.105263157895 0.859649122807014  L 176.421052631579 28.9298245614036  L 197.473684210526 42.9649122807017  L 239 57  C 275.96 57  305 86.04  305 123  L 305 330  C 305 366.96  275.96 396  239 396  L 66 396  C 29.04 396  0 366.96  0 330  Z " fill-rule="evenodd" />
    </mask>
  </defs>
  <g transform="matrix(1 0 0 1 0 57 )">
    <path d="M 0 330  L 0 123  C 0 86.04  29.04 57  66 57  L 100.982456140351 42.9649122807017  L 125.543859649123 28.9298245614036  L 150.105263157895 0.859649122807014  L 176.421052631579 28.9298245614036  L 197.473684210526 42.9649122807017  L 239 57  C 275.96 57  305 86.04  305 123  L 305 330  C 305 366.96  275.96 396  239 396  L 66 396  C 29.04 396  0 366.96  0 330  Z " fill-rule="nonzero" fill="#797979" stroke="none" transform="matrix(1 0 0 1 0 -57 )" />
    <path d="M 0 330  L 0 123  C 0 86.04  29.04 57  66 57  L 100.982456140351 42.9649122807017  L 125.543859649123 28.9298245614036  L 150.105263157895 0.859649122807014  L 176.421052631579 28.9298245614036  L 197.473684210526 42.9649122807017  L 239 57  C 275.96 57  305 86.04  305 123  L 305 330  C 305 366.96  275.96 396  239 396  L 66 396  C 29.04 396  0 366.96  0 330  Z " stroke-width="6" stroke="#808000" fill="none" transform="matrix(1 0 0 1 0 -57 )" mask="url(#clip62)" />
  </g>
</svg>