<?xml version="1.0" encoding="utf-8"?>
<svg version="1.1" xmlns:xlink="http://www.w3.org/1999/xlink" width="339px" height="397px" xmlns="http://www.w3.org/2000/svg">
  <defs>
    <mask fill="white" id="clip63">
      <path d="M 0 331  L 0 124  C 0 87.04  29.04 58  66 58  L 88.341614029804 48.9876506535685  L 109.491228070176 40.4561403508775  L 134.052631578948 22.9122807017546  L 169.140350877193 0  L 197.21052631579 22.9122807017546  L 221.771929824562 40.4561403508775  L 241.070175438597 48.9876506535685  L 273 58  C 309.96 58  339 87.04  339 124  L 339 331  C 339 367.96  309.96 397  273 397  L 66 397  C 29.04 397  0 367.96  0 331  Z " fill-rule="evenodd" />
    </mask>
  </defs>
  <g transform="matrix(1 0 0 1 0 58 )">
    <path d="M 0 331  L 0 124  C 0 87.04  29.04 58  66 58  L 88.341614029804 48.9876506535685  L 109.491228070176 40.4561403508775  L 134.052631578948 22.9122807017546  L 169.140350877193 0  L 197.21052631579 22.9122807017546  L 221.771929824562 40.4561403508775  L 241.070175438597 48.9876506535685  L 273 58  C 309.96 58  339 87.04  339 124  L 339 331  C 339 367.96  309.96 397  273 397  L 66 397  C 29.04 397  0 367.96  0 331  Z " fill-rule="nonzero" fill="#797979" stroke="none" transform="matrix(1 0 0 1 0 -58 )" />
    <path d="M 0 331  L 0 124  C 0 87.04  29.04 58  66 58  L 88.341614029804 48.9876506535685  L 109.491228070176 40.4561403508775  L 134.052631578948 22.9122807017546  L 169.140350877193 0  L 197.21052631579 22.9122807017546  L 221.771929824562 40.4561403508775  L 241.070175438597 48.9876506535685  L 273 58  C 309.96 58  339 87.04  339 124  L 339 331  C 339 367.96  309.96 397  273 397  L 66 397  C 29.04 397  0 367.96  0 331  Z " stroke-width="6" stroke="#808000" fill="none" transform="matrix(1 0 0 1 0 -58 )" mask="url(#clip63)" />
  </g>
</svg>