<?xml version="1.0" encoding="utf-8"?>
<svg version="1.1" xmlns:xlink="http://www.w3.org/1999/xlink" width="55px" height="7px" xmlns="http://www.w3.org/2000/svg">
  <g transform="matrix(1 0 0 1 -866 -100 )">
    <path d="M 54.3196614583333 0.51953125  C 54.7732204861111 0.865885416666667  55 1.27604166666667  55 1.75  L 55 5.25  C 55 5.72395833333333  54.7732204861111 6.13411458333333  54.3196614583333 6.48046875  C 53.8661024305556 6.82682291666667  53.3289930555556 7  52.7083333333333 7  L 2.29166666666667 7  C 1.67100694444444 7  1.13389756944444 6.82682291666667  0.680338541666667 6.48046875  C 0.226779513888889 6.13411458333333  0 5.72395833333333  0 5.25  L 0 1.75  C 0 1.27604166666667  0.226779513888889 0.865885416666667  0.680338541666667 0.51953125  C 1.13389756944444 0.173177083333333  1.67100694444444 0  2.29166666666667 0  L 52.7083333333333 0  C 53.3289930555556 0  53.8661024305556 0.173177083333333  54.3196614583333 0.51953125  Z " fill-rule="nonzero" fill="#000000" stroke="none" transform="matrix(1 0 0 1 866 100 )" />
  </g>
</svg>