<?xml version="1.0" encoding="utf-8"?>
<svg version="1.1" xmlns:xlink="http://www.w3.org/1999/xlink" width="44px" height="7px" xmlns="http://www.w3.org/2000/svg">
  <g transform="matrix(1 0 0 1 -717 -80 )">
    <path d="M 43.4557291666667 0.51953125  C 43.8185763888889 0.865885416666667  44 1.27604166666667  44 1.75  L 44 5.25  C 44 5.72395833333333  43.8185763888889 6.13411458333333  43.4557291666667 6.48046875  C 43.0928819444444 6.82682291666667  42.6631944444444 7  42.1666666666667 7  L 1.83333333333333 7  C 1.33680555555556 7  0.907118055555556 6.82682291666667  0.544270833333333 6.48046875  C 0.181423611111111 6.13411458333333  0 5.72395833333333  0 5.25  L 0 1.75  C 0 1.27604166666667  0.181423611111111 0.865885416666667  0.544270833333333 0.51953125  C 0.907118055555556 0.173177083333333  1.33680555555556 0  1.83333333333333 0  L 42.1666666666667 0  C 42.6631944444444 0  43.0928819444444 0.173177083333333  43.4557291666667 0.51953125  Z " fill-rule="nonzero" fill="#000000" stroke="none" transform="matrix(1 0 0 1 717 80 )" />
  </g>
</svg>