<?xml version="1.0" encoding="utf-8"?>
<svg version="1.1" xmlns:xlink="http://www.w3.org/1999/xlink" width="32px" height="34px" xmlns="http://www.w3.org/2000/svg">
  <g transform="matrix(1 0 0 1 -1019 -331 )">
    <path d="M 32 0  L 0 0  L 0 34  L 32 34  L 32 0  Z M 10 13.0698989010989  L 10 28.2463032967033  L 5.20552087912088 28.2463032967033  L 5.20552087912088 13.0698989010989  L 10 13.0698989010989  Z M 10.2655296703297 8.37558241758242  C 10.2655296703297 9.83272527472528  9.23569230769231 10.9985142857143  7.57935824175824 10.9985142857143  L 7.54799120879121 10.9985142857143  C 5.95537582417582 10.9985142857143  4.92307692307692 9.83272527472528  4.92307692307692 8.37558241758242  C 4.92307692307692 6.88645714285714  5.98554725274725 5.7536967032967  7.61044395604396 5.7536967032967  C 9.23569230769231 5.7536967032967  10.234443956044 6.88645714285714  10.2655296703297 8.37558241758242  Z M 27.0769230769231 19.5434241758242  L 27.0769230769231 28.2463032967033  L 22.3279824175824 28.2463032967033  L 22.3279824175824 20.1268791208791  C 22.3279824175824 18.0875516483517  21.6418461538462 16.6954945054945  19.9230593406593 16.6954945054945  C 18.6104263736264 16.6954945054945  17.8304 17.6327736263736  17.4867692307692 18.5406857142857  C 17.3618637362637 18.8649934065934  17.3292307692308 19.315810989011  17.3292307692308 19.770589010989  L 17.3292307692308 28.246378021978  L 12.5793758241758 28.246378021978  C 12.5793758241758 28.246378021978  12.6430241758242 14.4937142857143  12.5793758241758 13.0699736263736  L 17.3292307692308 13.0699736263736  L 17.3292307692308 15.2204923076923  C 17.9602989010989 14.1887604395604  19.0864879120879 12.7136835164835  21.6092131868132 12.7136835164835  C 24.7344527472528 12.7136835164835  27.0769230769231 14.882210989011  27.0769230769231 19.5434241758242  Z " fill-rule="nonzero" fill="#a27635" stroke="none" transform="matrix(1 0 0 1 1019 331 )" />
  </g>
</svg>