<?xml version="1.0" encoding="utf-8"?>
<svg version="1.1" xmlns:xlink="http://www.w3.org/1999/xlink" width="51px" height="45px" xmlns="http://www.w3.org/2000/svg">
  <g transform="matrix(1 0 0 1 -908 -197 )">
    <path d="M 45.778875 11.2532115384615  C 47.823125 9.65604807692307  49.5975 7.66361538461538  51 5.39541346153846  C 49.123625 6.29625961538462  47.107 6.90295192307692  44.9905 7.17642307692308  C 47.151625 5.77689423076923  48.81125 3.55925  49.591125 0.91646153846154  C 47.57025 2.21257692307692  45.3305 3.15478846153846  42.94625 3.66266346153846  C 41.040125 1.46340384615385  38.318 0.0891538461538493  35.309 0.0891538461538493  C 28.553625 0.0891538461538493  23.589625 6.90525  25.115375 13.9810288461538  C 16.422 13.5099230769231  8.7125 9.00569230769231  3.550875 2.15972115384616  C 0.809624999999999 7.24536538461539  2.12925 13.8982980769231  6.78725 17.2672788461539  C 5.0745 17.2075288461538  3.4595 16.6996538461539  2.050625 15.8516634615385  C 1.935875 21.0935769230769  5.41025 25.9976730769231  10.44225 27.0892596153846  C 8.969625 27.5212980769231  7.35675 27.6224134615385  5.71625 27.2822980769231  C 7.0465 31.7773365384615  10.90975 35.0475  15.49125 35.1394230769231  C 11.0925 38.8692019230769  5.5505 40.5353076923077  0 39.8275  C 4.630375 43.0379134615385  10.132 44.9108461538462  16.0395 44.9108461538462  C 35.46625 44.9108461538462  46.441875 27.1673942307692  45.778875 11.2532115384615  Z " fill-rule="nonzero" fill="#1896dd" stroke="none" transform="matrix(1 0 0 1 908 197 )" />
  </g>
</svg>