<?xml version="1.0" encoding="utf-8"?>
<svg version="1.1" xmlns:xlink="http://www.w3.org/1999/xlink" width="42px" height="47px" xmlns="http://www.w3.org/2000/svg">
  <g transform="matrix(1 0 0 1 -749 -262 )">
    <path d="M 37.70025 11.7533542735043  C 39.38375 10.0852057692308  40.845 8.00422051282051  42 5.63520961538462  C 40.45475 6.57609337606838  38.794 7.20974978632479  37.051 7.49537521367522  C 38.83075 6.03364508547009  40.1975 3.71743888888889  40.83975 0.957193162393164  C 39.1755 2.31091367521368  37.331 3.29500128205129  35.3675 3.82544850427351  C 33.79775 1.52844401709402  31.556 0.0931162393162426  29.078 0.0931162393162426  C 23.51475 0.0931162393162426  19.42675 7.21215  20.68325 14.6024079059829  C 13.524 14.1103641025641  7.175 9.4059452991453  2.92425 2.25570876068376  C 0.666749999999999 7.56738162393163  1.7535 14.5160002136752  5.5895 18.0347134615385  C 4.179 17.9723079059829  2.849 17.4418606837607  1.68875 16.5561818376068  C 1.59425 22.0310692307692  4.4555 27.1531252136752  8.5995 28.2932267094017  C 7.38675 28.7444668803419  6.0585 28.8500762820513  4.7075 28.4948446581197  C 5.803 33.1896626068376  8.9845 36.6051666666667  12.7575 36.7011752136752  C 9.135 40.596722008547  4.571 42.3368769230769  0 41.5976111111111  C 3.81325 44.9507096153846  8.344 46.9068837606838  13.209 46.9068837606838  C 29.2075 46.9068837606838  38.24625 28.374833974359  37.70025 11.7533542735043  Z " fill-rule="nonzero" fill="#1896dd" stroke="none" transform="matrix(1 0 0 1 749 262 )" />
  </g>
</svg>