<?xml version="1.0" encoding="utf-8"?>
<svg version="1.1" xmlns:xlink="http://www.w3.org/1999/xlink" width="26px" height="36px" xmlns="http://www.w3.org/2000/svg">
  <g transform="matrix(1 0 0 1 -840 -402 )">
    <path d="M 26 0  L 0 0  L 0 36  L 26 36  L 26 0  Z M 8 13.8387164835165  L 8 29.9078505494506  L 4.22948571428572 29.9078505494506  L 4.22948571428572 13.8387164835165  L 8 13.8387164835165  Z M 8.34074285714286 8.86826373626374  C 8.34074285714286 10.4111208791209  7.504 11.6454857142857  6.15822857142857 11.6454857142857  L 6.13274285714286 11.6454857142857  C 4.83874285714286 11.6454857142857  4 10.4111208791209  4 8.86826373626374  C 4 7.29154285714286  4.86325714285714 6.09214945054945  6.18348571428571 6.09214945054945  C 7.504 6.09214945054945  8.31548571428572 7.29154285714286  8.34074285714286 8.86826373626374  Z M 22 20.6930373626374  L 22 29.9078505494506  L 18.1414857142857 29.9078505494506  L 18.1414857142857 21.3108131868132  C 18.1414857142857 19.1515252747253  17.584 17.6775824175824  16.1874857142857 17.6775824175824  C 15.1209714285714 17.6775824175824  14.4872 18.6699956043956  14.208 19.6313142857143  C 14.1065142857143 19.9746989010989  14.08 20.4520351648352  14.08 20.9335648351648  L 14.08 29.9079296703297  L 10.2207428571429 29.9079296703297  C 10.2207428571429 29.9079296703297  10.2724571428571 15.3462857142857  10.2207428571429 13.8387956043956  L 14.08 13.8387956043956  L 14.08 16.1158153846154  C 14.5927428571429 15.0233934065934  15.5077714285714 13.4615472527473  17.5574857142857 13.4615472527473  C 20.0967428571429 13.4615472527473  22 15.7576351648352  22 20.6930373626374  Z " fill-rule="nonzero" fill="#a27635" stroke="none" transform="matrix(1 0 0 1 840 402 )" />
  </g>
</svg>