<?xml version="1.0" encoding="utf-8"?>
<svg version="1.1" xmlns:xlink="http://www.w3.org/1999/xlink" width="35px" height="48px" xmlns="http://www.w3.org/2000/svg">
  <defs>
    <linearGradient gradientUnits="userSpaceOnUse" x1="29.2122273094527" y1="12.4104497710755" x2="17.5" y2="48" id="LinearGradient65">
      <stop id="Stop66" stop-color="#1896dd" offset="0" />
      <stop id="Stop67" stop-color="#25356e" offset="1" />
    </linearGradient>
  </defs>
  <g transform="matrix(1 0 0 1 -467 -461 )">
    <path d="M 20.6524884259259 45.6865079365079  C 29.0899884259259 52.7023809523809  38.7268518518518 39.218253968254  33.5344328703704 27.7103174603175  C 35.4976851851852 12.3035714285714  25.6987847222222 -0.884920634920638  14.6513310185185 1.95833333333333  C 6.22974537037037 -5.10714285714286  -3.4375 8.35912698412698  1.72453703703703 19.8730158730159  C -0.282118055555558 35.2440476190476  9.51388888888889 48.6031746031746  20.6524884259259 45.6865079365079  Z M 26.9343171296296 29.4166666666667  C 26.9328703703704 35.4464285714286  23.4288194444445 39.3988095238095  18.1944444444444 39.3988095238095  C 13.5923032407407 39.3988095238095  8.96701388888888 36.5257936507936  8.99016203703704 31.5793650793651  C 8.99739583333333 30.0873015873016  9.80613425925926 28.718253968254  10.8839699074074 28.718253968254  C 13.59375 28.718253968254  13.5677083333333 34.2638888888889  17.8819444444444 34.2638888888889  C 20.9100115740741 34.2638888888889  21.9429976851852 31.9900793650794  21.9429976851852 30.406746031746  C 21.9429976851852 24.6805555555556  8.8599537037037 28.1904761904762  8.8599537037037 17.4246031746032  C 8.8599537037037 11.5952380952381  12.3350694444444 7.57936507936508  17.7994791666667 8.01785714285714  C 23.0107060185185 8.44047619047619  26.0648148148148 11.5952380952381  26.3599537037037 14.5436507936508  C 26.5060763888889 16.4702380952381  25.5758101851852 17.9702380952381  23.9597800925926 17.9702380952381  C 21.6044560185185 17.9702380952381  21.3628472222222 13.6428571428571  17.3046875 13.6428571428571  C 15.4730902777778 13.6428571428571  13.9279513888889 14.6904761904762  13.9279513888889 16.9642857142857  C 13.9279513888889 21.7162698412698  26.9343171296296 18.9583333333333  26.9343171296296 29.4166666666667  Z " fill-rule="nonzero" fill="url(#LinearGradient65)" stroke="none" transform="matrix(1 0 0 1 467 461 )" />
  </g>
</svg>