<?xml version="1.0" encoding="utf-8"?>
<svg version="1.1" xmlns:xlink="http://www.w3.org/1999/xlink" width="43px" height="46px" xmlns="http://www.w3.org/2000/svg">
  <defs>
    <linearGradient gradientUnits="userSpaceOnUse" x1="35.8893078373276" y1="11.8933476972807" x2="21.5" y2="46" id="LinearGradient106">
      <stop id="Stop107" stop-color="#1896dd" offset="0" />
      <stop id="Stop108" stop-color="#25356e" offset="1" />
    </linearGradient>
  </defs>
  <g transform="matrix(1 0 0 1 -564 -387 )">
    <path d="M 25.3730572089947 43.7829034391534  C 35.7391286375661 50.5064484126984  47.5787037037037 37.5841600529101  41.1994460978836 26.5557208994709  C 43.6114417989418 11.7909226190476  31.5727926587302 -0.848048941798945  18.0002066798942 1.87673611111111  C 7.65368716931217 -4.89434523809524  -4.22321428571429 8.01083002645503  2.11871693121693 19.0449735449735  C -0.346602182539686 33.7755456349206  11.6884920634921 46.5780423280423  25.3730572089947 43.7829034391534  Z M 33.090732473545 28.1909722222222  C 33.088955026455 33.969494047619  28.7839781746032 37.7571924603175  22.3531746031746 37.7571924603175  C 16.6991154100529 37.7571924603175  11.0166170634921 35.0038855820106  11.0450562169312 30.2635582010582  C 11.0539434523809 28.833664021164  12.0475363756614 27.52166005291  13.371734457672 27.52166005291  C 16.7008928571429 27.52166005291  16.6688988095238 32.8362268518518  21.969246031746 32.8362268518518  C 25.6894427910053 32.8362268518518  26.9585400132275 30.6571593915344  26.9585400132275 29.1397982804233  C 26.9585400132275 23.6521990740741  10.885085978836 27.015873015873  10.885085978836 16.698578042328  C 10.885085978836 11.1121031746032  15.1545138888889 7.2635582010582  21.8679315476191 7.68377976190476  C 28.2702959656085 8.08878968253968  32.0224867724868 11.1121031746032  32.385085978836 13.9376653439153  C 32.5646081349206 15.7839781746032  31.4217096560847 17.2214781746032  29.4363012566138 17.2214781746032  C 26.5426173941799 17.2214781746032  26.2457837301587 13.0744047619048  21.2600446428571 13.0744047619048  C 19.0097966269841 13.0744047619048  17.1114831349206 14.078373015873  17.1114831349206 16.2574404761905  C 17.1114831349206 20.8114252645503  33.090732473545 18.1684027777778  33.090732473545 28.1909722222222  Z " fill-rule="nonzero" fill="url(#LinearGradient106)" stroke="none" transform="matrix(1 0 0 1 564 387 )" />
  </g>
</svg>