<?xml version="1.0" encoding="utf-8"?>
<svg version="1.1" xmlns:xlink="http://www.w3.org/1999/xlink" width="37px" height="46px" xmlns="http://www.w3.org/2000/svg">
  <defs>
    <linearGradient gradientUnits="userSpaceOnUse" x1="30.8814974414214" y1="11.8933476972807" x2="18.5" y2="46" id="LinearGradient109">
      <stop id="Stop110" stop-color="#1896dd" offset="0" />
      <stop id="Stop111" stop-color="#25356e" offset="1" />
    </linearGradient>
  </defs>
  <g transform="matrix(1 0 0 1 -488 -387 )">
    <path d="M 21.8326306216931 43.7829034391534  C 30.752273478836 50.5064484126984  40.9398148148148 37.5841600529101  35.4506861772487 26.5557208994709  C 37.5261243386243 11.7909226190476  27.1672867063492 -0.848048941798945  15.4885499338624 1.87673611111111  C 6.58573082010582 -4.89434523809524  -3.63392857142857 8.01083002645503  1.82308201058201 19.0449735449735  C -0.29823908730159 33.7755456349206  10.0575396825397 46.5780423280423  21.8326306216931 43.7829034391534  Z M 28.4734209656085 28.1909722222222  C 28.4718915343915 33.969494047619  24.7676091269841 37.7571924603175  19.234126984127 37.7571924603175  C 14.3690062830688 37.7571924603175  9.47941468253968 35.0038855820106  9.50388558201058 30.2635582010582  C 9.51153273809523 28.833664021164  10.3664847883598 27.52166005291  11.5059110449735 27.52166005291  C 14.3705357142857 27.52166005291  14.3430059523809 32.8362268518518  18.9037698412698 32.8362268518518  C 22.1048693783069 32.8362268518518  23.1968832671958 30.6571593915344  23.1968832671958 29.1397982804233  C 23.1968832671958 23.6521990740741  9.36623677248677 27.015873015873  9.36623677248677 16.698578042328  C 9.36623677248677 11.1121031746032  13.0399305555556 7.2635582010582  18.8165922619048 7.68377976190476  C 24.325603505291 8.08878968253968  27.5542328042328 11.1121031746032  27.8662367724868 13.9376653439153  C 28.0207093253968 15.7839781746032  27.03728505291 17.2214781746032  25.3289103835979 17.2214781746032  C 22.8389963624339 17.2214781746032  22.5835813492063 13.0744047619048  18.2935267857143 13.0744047619048  C 16.3572668650794 13.0744047619048  14.7238343253968 14.078373015873  14.7238343253968 16.2574404761905  C 14.7238343253968 20.8114252645503  28.4734209656085 18.1684027777778  28.4734209656085 28.1909722222222  Z " fill-rule="nonzero" fill="url(#LinearGradient109)" stroke="none" transform="matrix(1 0 0 1 488 387 )" />
  </g>
</svg>