<?xml version="1.0" encoding="utf-8"?>
<svg version="1.1" xmlns:xlink="http://www.w3.org/1999/xlink" width="27px" height="34px" xmlns="http://www.w3.org/2000/svg">
  <g transform="matrix(1 0 0 1 -879 -331 )">
    <path d="M 27 0  L 0 0  L 0 34  L 27 34  L 27 0  Z M 8.39800879120879 13.0698989010989  L 8.39800879120879 28.2463032967033  L 4.39215824175824 28.2463032967033  L 4.39215824175824 13.0698989010989  L 8.39800879120879 13.0698989010989  Z M 8.66154065934066 8.37558241758242  C 8.66154065934066 9.83272527472528  7.79261538461538 10.9985142857143  6.39508351648352 10.9985142857143  L 6.36861758241758 10.9985142857143  C 5.02484835164835 10.9985142857143  4.15384615384615 9.83272527472528  4.15384615384615 8.37558241758242  C 4.15384615384615 6.88645714285714  5.05030549450549 5.7536967032967  6.42131208791209 5.7536967032967  C 7.79261538461538 5.7536967032967  8.63531208791209 6.88645714285714  8.66154065934066 8.37558241758242  Z M 22.8461538461538 19.5434241758242  L 22.8461538461538 28.2463032967033  L 18.8392351648352 28.2463032967033  L 18.8392351648352 20.1268791208791  C 18.8392351648352 18.0875516483517  18.2603076923077 16.6954945054945  16.8100813186813 16.6954945054945  C 15.7025472527473 16.6954945054945  15.0444 17.6327736263736  14.7544615384615 18.5406857142857  C 14.6490725274725 18.8649934065934  14.6215384615385 19.315810989011  14.6215384615385 19.770589010989  L 14.6215384615385 28.246378021978  L 10.6138483516484 28.246378021978  C 10.6138483516484 28.246378021978  10.6675516483516 14.4937142857143  10.6138483516484 13.0699736263736  L 14.6215384615385 13.0699736263736  L 14.6215384615385 15.2204923076923  C 15.1540021978022 14.1887604395604  16.1042241758242 12.7136835164835  18.2327736263736 12.7136835164835  C 20.8696945054945 12.7136835164835  22.8461538461538 14.882210989011  22.8461538461538 19.5434241758242  Z " fill-rule="nonzero" fill="#a27635" stroke="none" transform="matrix(1 0 0 1 879 331 )" />
  </g>
</svg>