<?xml version="1.0" encoding="utf-8"?>
<svg version="1.1" xmlns:xlink="http://www.w3.org/1999/xlink" width="44px" height="45px" xmlns="http://www.w3.org/2000/svg">
  <g transform="matrix(1 0 0 1 -784 -197 )">
    <path d="M 39.4955 11.2532115384615  C 41.2591666666667 9.65604807692307  42.79 7.66361538461538  44 5.39541346153846  C 42.3811666666667 6.29625961538462  40.6413333333333 6.90295192307692  38.8153333333333 7.17642307692308  C 40.6798333333333 5.77689423076923  42.1116666666667 3.55925  42.7845 0.91646153846154  C 41.041 2.21257692307692  39.1086666666667 3.15478846153846  37.0516666666667 3.66266346153846  C 35.4071666666667 1.46340384615385  33.0586666666667 0.0891538461538493  30.4626666666667 0.0891538461538493  C 24.6345 0.0891538461538493  20.3518333333333 6.90525  21.6681666666667 13.9810288461538  C 14.168 13.5099230769231  7.51666666666667 9.00569230769231  3.0635 2.15972115384616  C 0.698499999999999 7.24536538461539  1.837 13.8982980769231  5.85566666666667 17.2672788461539  C 4.378 17.2075288461538  2.98466666666667 16.6996538461539  1.76916666666667 15.8516634615385  C 1.67016666666666 21.0935769230769  4.66766666666666 25.9976730769231  9.009 27.0892596153846  C 7.7385 27.5212980769231  6.347 27.6224134615385  4.93166666666666 27.2822980769231  C 6.07933333333333 31.7773365384615  9.41233333333333 35.0475  13.365 35.1394230769231  C 9.57 38.8692019230769  4.78866666666666 40.5353076923077  0 39.8275  C 3.99483333333333 43.0379134615385  8.74133333333333 44.9108461538462  13.838 44.9108461538462  C 30.5983333333333 44.9108461538462  40.0675 27.1673942307692  39.4955 11.2532115384615  Z " fill-rule="nonzero" fill="#1896dd" stroke="none" transform="matrix(1 0 0 1 784 197 )" />
  </g>
</svg>