<?xml version="1.0" encoding="utf-8"?>
<svg version="1.1" xmlns:xlink="http://www.w3.org/1999/xlink" width="142px" height="28px" xmlns="http://www.w3.org/2000/svg">
  <g transform="matrix(1 0 0 1 -982 -537 )">
    <path d="M 1053 537  C 1092.76 537  1124 543.16  1124 551  C 1124 558.84  1092.76 565  1053 565  C 1013.24 565  982 558.84  982 551  C 982 543.16  1013.24 537  1053 537  Z " fill-rule="nonzero" fill="#000000" stroke="none" />
    <path d="M 1053 537.5  C 1092.48 537.5  1123.5 543.44  1123.5 551  C 1123.5 558.56  1092.48 564.5  1053 564.5  C 1013.52 564.5  982.5 558.56  982.5 551  C 982.5 543.44  1013.52 537.5  1053 537.5  Z " stroke-width="1" stroke="#000000" fill="none" />
  </g>
</svg>