<?xml version="1.0" encoding="utf-8"?>
<svg version="1.1" xmlns:xlink="http://www.w3.org/1999/xlink" width="178px" height="32px" xmlns="http://www.w3.org/2000/svg">
  <g transform="matrix(1 0 0 1 -572 -806 )">
    <path d="M 661 806  C 710.84 806  750 813.04  750 822  C 750 830.96  710.84 838  661 838  C 611.16 838  572 830.96  572 822  C 572 813.04  611.16 806  661 806  Z " fill-rule="nonzero" fill="#000000" stroke="none" />
    <path d="M 661 806.5  C 710.56 806.5  749.5 813.32  749.5 822  C 749.5 830.68  710.56 837.5  661 837.5  C 611.44 837.5  572.5 830.68  572.5 822  C 572.5 813.32  611.44 806.5  661 806.5  Z " stroke-width="1" stroke="#000000" fill="none" />
  </g>
</svg>